<svg width="1920" height="1040" xmlns="http://www.w3.org/2000/svg" viewBox="0 0 960 520">
<style>
  .fig-title  { font: 700 17px "PingFang SC", "Helvetica Neue", Arial, sans-serif; fill: #1A2233; }
  .label      { font: 700 13px "PingFang SC", "Helvetica Neue", Arial, sans-serif; fill: #1A2233; }
  .case-id    { font: 700 12px "Helvetica Neue", Arial, sans-serif; fill: #1A2233; }
  .num-mean   { font: 700 13px Menlo, Consolas, monospace; fill: #1A2233; }
  .num-delta  { font: 11px Menlo, Consolas, monospace; fill: #5E6B82; }
  .body-sm    { font: 11px "PingFang SC", "Helvetica Neue", Arial, sans-serif; fill: #5E6B82; }
  .tier       { font: 11px Menlo, Consolas, monospace; fill: #5E6B82; }
  .fig-caption{ font: 11.5px "PingFang SC", "Helvetica Neue", Arial, sans-serif; fill: #5E6B82; }
  .summary-big{ font: 700 28px "Helvetica Neue", Arial, sans-serif; fill: #4464f0; }
  .summary-lbl{ font: 11px "PingFang SC", "Helvetica Neue", Arial, sans-serif; fill: #5E6B82; }
</style>
<rect width="960" height="520" fill="#fff"/>
<text x="40" y="32" class="fig-title">三套独立评分器复现性 — 跨评分器分数离散度</text>
<line x1="40" y1="42" x2="920" y2="42" stroke="#1A2233" stroke-width="0.8"/>
<text x="60" y="85" class="summary-big" style="fill:#4464f0">2.0</text>
<text x="60" y="103" class="summary-lbl">平均极差 Δ_avg（分）</text>
<text x="260" y="85" class="summary-big" style="fill:#4464f0">2.9</text>
<text x="260" y="103" class="summary-lbl">最大极差 Δ_max（分）</text>
<text x="460" y="85" class="summary-big" style="fill:#3E8E5F">≤ 3</text>
<text x="460" y="103" class="summary-lbl">工程稳定阈值（分）</text>
<text x="660" y="85" class="summary-big" style="fill:#3E8E5F">10/10</text>
<text x="660" y="103" class="summary-lbl">在阈值内的 case 数</text>
<line x1="40" y1="120" x2="920" y2="120" stroke="#D1D5DB" stroke-width="0.5"/>
<line x1="200" y1="165" x2="760" y2="165" stroke="#1A2233" stroke-width="0.8"/>
<line x1="200.0" y1="161" x2="200.0" y2="165" stroke="#1A2233" stroke-width="0.6"/>
<text x="200.0" y="157" text-anchor="middle" class="tier">50</text>
<line x1="340.0" y1="161" x2="340.0" y2="165" stroke="#1A2233" stroke-width="0.6"/>
<text x="340.0" y="157" text-anchor="middle" class="tier">60</text>
<line x1="480.0" y1="161" x2="480.0" y2="165" stroke="#1A2233" stroke-width="0.6"/>
<text x="480.0" y="157" text-anchor="middle" class="tier">70</text>
<line x1="620.0" y1="161" x2="620.0" y2="165" stroke="#1A2233" stroke-width="0.6"/>
<text x="620.0" y="157" text-anchor="middle" class="tier">80</text>
<line x1="760.0" y1="161" x2="760.0" y2="165" stroke="#1A2233" stroke-width="0.6"/>
<text x="760.0" y="157" text-anchor="middle" class="tier">90</text>
<text x="480.0" y="143" text-anchor="middle" class="label">MainScore (0-100)</text>
<text x="830" y="181" text-anchor="end" class="body-sm" font-weight="700">均值</text>
<text x="905" y="181" text-anchor="end" class="body-sm" font-weight="700">±Δ/2</text>
<line x1="790" y1="185" x2="910" y2="185" stroke="#D1D5DB" stroke-width="0.5"/>
<text x="188" y="203" text-anchor="end" class="case-id">c1</text>
<line x1="200" y1="199" x2="760" y2="199" stroke="#D1D5DB" stroke-width="0.3" stroke-dasharray="2,3"/>
<line x1="434.4" y1="199" x2="459.6" y2="199" stroke="#4464f0" stroke-width="3" stroke-linecap="round" opacity="0.30"/>
<circle cx="445.7" cy="199" r="5" fill="#4464f0"/>
<circle cx="445.7" cy="199" r="2" fill="#fff"/>
<text x="830" y="203" text-anchor="end" class="num-mean">67.6</text>
<text x="905" y="203" text-anchor="end" class="num-delta">±0.9</text>
<text x="188" y="227" text-anchor="end" class="case-id">c2</text>
<line x1="200" y1="223" x2="760" y2="223" stroke="#D1D5DB" stroke-width="0.3" stroke-dasharray="2,3"/>
<line x1="486.5" y1="223" x2="509.8" y2="223" stroke="#4464f0" stroke-width="3" stroke-linecap="round" opacity="0.30"/>
<circle cx="499.2" cy="223" r="5" fill="#4464f0"/>
<circle cx="499.2" cy="223" r="2" fill="#fff"/>
<text x="830" y="227" text-anchor="end" class="num-mean">71.4</text>
<text x="905" y="227" text-anchor="end" class="num-delta">±0.8</text>
<text x="188" y="251" text-anchor="end" class="case-id">c3</text>
<line x1="200" y1="247" x2="760" y2="247" stroke="#D1D5DB" stroke-width="0.3" stroke-dasharray="2,3"/>
<line x1="386.7" y1="247" x2="410.4" y2="247" stroke="#4464f0" stroke-width="3" stroke-linecap="round" opacity="0.30"/>
<circle cx="394.9" cy="247" r="5" fill="#4464f0"/>
<circle cx="394.9" cy="247" r="2" fill="#fff"/>
<text x="830" y="251" text-anchor="end" class="num-mean">63.9</text>
<text x="905" y="251" text-anchor="end" class="num-delta">±0.8</text>
<text x="188" y="275" text-anchor="end" class="case-id">c4</text>
<line x1="200" y1="271" x2="760" y2="271" stroke="#D1D5DB" stroke-width="0.3" stroke-dasharray="2,3"/>
<line x1="528.3" y1="271" x2="546.7" y2="271" stroke="#4464f0" stroke-width="3" stroke-linecap="round" opacity="0.30"/>
<circle cx="534.8" cy="271" r="5" fill="#4464f0"/>
<circle cx="534.8" cy="271" r="2" fill="#fff"/>
<text x="830" y="275" text-anchor="end" class="num-mean">73.9</text>
<text x="905" y="275" text-anchor="end" class="num-delta">±0.7</text>
<text x="188" y="299" text-anchor="end" class="case-id">c5</text>
<line x1="200" y1="295" x2="760" y2="295" stroke="#D1D5DB" stroke-width="0.3" stroke-dasharray="2,3"/>
<line x1="461.0" y1="295" x2="496.5" y2="295" stroke="#4464f0" stroke-width="3" stroke-linecap="round" opacity="0.30"/>
<circle cx="477.9" cy="295" r="5" fill="#4464f0"/>
<circle cx="477.9" cy="295" r="2" fill="#fff"/>
<text x="830" y="299" text-anchor="end" class="num-mean">69.9</text>
<text x="905" y="299" text-anchor="end" class="num-delta">±1.3</text>
<text x="188" y="323" text-anchor="end" class="case-id">c6</text>
<line x1="200" y1="319" x2="760" y2="319" stroke="#D1D5DB" stroke-width="0.3" stroke-dasharray="2,3"/>
<line x1="298.1" y1="319" x2="334.6" y2="319" stroke="#4464f0" stroke-width="3" stroke-linecap="round" opacity="0.30"/>
<circle cx="317.0" cy="319" r="5" fill="#4464f0"/>
<circle cx="317.0" cy="319" r="2" fill="#fff"/>
<text x="830" y="323" text-anchor="end" class="num-mean">58.4</text>
<text x="905" y="323" text-anchor="end" class="num-delta">±1.3</text>
<text x="188" y="347" text-anchor="end" class="case-id">c7</text>
<line x1="200" y1="343" x2="760" y2="343" stroke="#D1D5DB" stroke-width="0.3" stroke-dasharray="2,3"/>
<line x1="628.8" y1="343" x2="658.0" y2="343" stroke="#4464f0" stroke-width="3" stroke-linecap="round" opacity="0.30"/>
<circle cx="641.6" cy="343" r="5" fill="#4464f0"/>
<circle cx="641.6" cy="343" r="2" fill="#fff"/>
<text x="830" y="347" text-anchor="end" class="num-mean">81.5</text>
<text x="905" y="347" text-anchor="end" class="num-delta">±1.0</text>
<text x="188" y="371" text-anchor="end" class="case-id">c8</text>
<line x1="200" y1="367" x2="760" y2="367" stroke="#D1D5DB" stroke-width="0.3" stroke-dasharray="2,3"/>
<line x1="359.1" y1="367" x2="400.1" y2="367" stroke="#4464f0" stroke-width="3" stroke-linecap="round" opacity="0.30"/>
<circle cx="376.9" cy="367" r="5" fill="#4464f0"/>
<circle cx="376.9" cy="367" r="2" fill="#fff"/>
<text x="830" y="371" text-anchor="end" class="num-mean">62.6</text>
<text x="905" y="371" text-anchor="end" class="num-delta">±1.5</text>
<text x="188" y="395" text-anchor="end" class="case-id">c9</text>
<line x1="200" y1="391" x2="760" y2="391" stroke="#D1D5DB" stroke-width="0.3" stroke-dasharray="2,3"/>
<line x1="558.7" y1="391" x2="568.3" y2="391" stroke="#4464f0" stroke-width="3" stroke-linecap="round" opacity="0.30"/>
<circle cx="562.4" cy="391" r="5" fill="#4464f0"/>
<circle cx="562.4" cy="391" r="2" fill="#fff"/>
<text x="830" y="395" text-anchor="end" class="num-mean">75.9</text>
<text x="905" y="395" text-anchor="end" class="num-delta">±0.3</text>
<text x="188" y="419" text-anchor="end" class="case-id">c10</text>
<line x1="200" y1="415" x2="760" y2="415" stroke="#D1D5DB" stroke-width="0.3" stroke-dasharray="2,3"/>
<line x1="449.9" y1="415" x2="481.9" y2="415" stroke="#4464f0" stroke-width="3" stroke-linecap="round" opacity="0.30"/>
<circle cx="467.3" cy="415" r="5" fill="#4464f0"/>
<circle cx="467.3" cy="415" r="2" fill="#fff"/>
<text x="830" y="419" text-anchor="end" class="num-mean">69.1</text>
<text x="905" y="419" text-anchor="end" class="num-delta">±1.1</text>
<line x1="240" y1="457" x2="260" y2="457" stroke="#4464f0" stroke-width="3" opacity="0.30" stroke-linecap="round"/>
<text x="266" y="461" class="body-sm">三评分器极差范围</text>
<circle cx="450" cy="457" r="5" fill="#4464f0"/>
<circle cx="450" cy="457" r="2" fill="#fff"/>
<text x="460" y="461" class="body-sm">三评分器均值</text>
<text x="40" y="487" class="fig-caption">同一 Agent 输出经三套独立评分器（Python 官方实现、Go 重写、社区贡献）评分。10 个抽样 case 的跨评分器极差均在 ±3 分阈值内。</text>
<text x="40" y="504" class="fig-caption">差距源自 LLM 评判子项的随机性而非规则部分。规则评分（82% 权重）按字符精确复现；LLM 评判（18% 权重）残留小幅方差。</text>
</svg>